<mxfile host="app.diagrams.net" agent="Mozilla/5.0 (Windows NT 10.0; Win64; x64) AppleWebKit/537.36 (KHTML, like Gecko) Chrome/134.0.0.0 Safari/537.36" version="26.1.1">
  <diagram name="Page-1" id="u1gZ2aq9LTJj9w4wvYT-">
    <mxGraphModel dx="1050" dy="530" grid="1" gridSize="10" guides="1" tooltips="1" connect="1" arrows="1" fold="1" page="1" pageScale="1" pageWidth="850" pageHeight="1100" math="0" shadow="0">
      <root>
        <mxCell id="0" />
        <mxCell id="1" parent="0" />
        <mxCell id="EjZLoeSiAbHl-7pljlfA-1" value="Receptionniste" style="shape=umlActor;verticalLabelPosition=bottom;verticalAlign=top;html=1;fontSize=13;fontStyle=1" vertex="1" parent="1">
          <mxGeometry x="40" y="225" width="30" height="60" as="geometry" />
        </mxCell>
        <mxCell id="EjZLoeSiAbHl-7pljlfA-2" value="Gerer les patients" style="ellipse;whiteSpace=wrap;html=1;fontSize=13;fontStyle=1" vertex="1" parent="1">
          <mxGeometry x="195" y="155" width="140" height="70" as="geometry" />
        </mxCell>
        <mxCell id="EjZLoeSiAbHl-7pljlfA-3" value="Gerer les rendez-vous" style="ellipse;whiteSpace=wrap;html=1;fontSize=13;fontStyle=1" vertex="1" parent="1">
          <mxGeometry x="195" y="250" width="150" height="70" as="geometry" />
        </mxCell>
        <mxCell id="EjZLoeSiAbHl-7pljlfA-4" value="Modifier" style="ellipse;whiteSpace=wrap;html=1;fontSize=13;fontStyle=1" vertex="1" parent="1">
          <mxGeometry x="160" y="370" width="85" height="40" as="geometry" />
        </mxCell>
        <mxCell id="EjZLoeSiAbHl-7pljlfA-5" value="Confirmer" style="ellipse;whiteSpace=wrap;html=1;fontSize=13;fontStyle=1" vertex="1" parent="1">
          <mxGeometry x="310" y="370" width="85" height="40" as="geometry" />
        </mxCell>
        <mxCell id="EjZLoeSiAbHl-7pljlfA-6" value="Consulter" style="ellipse;whiteSpace=wrap;html=1;fontSize=13;fontStyle=1" vertex="1" parent="1">
          <mxGeometry x="90" y="40" width="85" height="40" as="geometry" />
        </mxCell>
        <mxCell id="EjZLoeSiAbHl-7pljlfA-7" value="Rechercher" style="ellipse;whiteSpace=wrap;html=1;fontSize=13;fontStyle=1" vertex="1" parent="1">
          <mxGeometry x="220" y="40" width="85" height="40" as="geometry" />
        </mxCell>
        <mxCell id="EjZLoeSiAbHl-7pljlfA-8" value="Ajouter" style="ellipse;whiteSpace=wrap;html=1;fontSize=13;fontStyle=1" vertex="1" parent="1">
          <mxGeometry x="345" y="40" width="85" height="40" as="geometry" />
        </mxCell>
        <mxCell id="EjZLoeSiAbHl-7pljlfA-9" value="Modifier" style="ellipse;whiteSpace=wrap;html=1;fontSize=13;fontStyle=1" vertex="1" parent="1">
          <mxGeometry x="470" y="40" width="85" height="40" as="geometry" />
        </mxCell>
        <mxCell id="EjZLoeSiAbHl-7pljlfA-10" value="Supprimer" style="ellipse;whiteSpace=wrap;html=1;fontSize=13;fontStyle=1" vertex="1" parent="1">
          <mxGeometry x="555" y="110" width="85" height="40" as="geometry" />
        </mxCell>
      </root>
    </mxGraphModel>
  </diagram>
</mxfile>
